<svg width="80" height="42" viewBox="0 0 80 42" fill="none" xmlns="http://www.w3.org/2000/svg">
<g clip-path="url(#clip0_2433_756)">
<path d="M34.1627 1.08038C34.3531 1.29147 34.4497 1.55332 34.4497 1.86223V40.0994C34.4497 40.4083 34.3531 40.6607 34.1627 40.853C33.9725 41.0453 33.7415 41.1431 33.4733 41.1431H27.7993C27.5311 41.1431 27.3034 41.0483 27.1099 40.853C26.9198 40.6607 26.8232 40.4083 26.8232 40.0994V17.1564C26.8232 16.8095 26.7452 16.6361 26.5952 16.6361C26.48 16.6361 26.3085 16.7719 26.0805 17.0428C25.4692 17.9699 24.4647 19.4169 23.0705 21.3874C21.676 23.3581 20.653 24.7864 20.0042 25.6755C19.6205 26.1766 19.3054 26.5077 19.0591 26.659C18.8096 26.8136 18.4009 26.8923 17.8271 26.8923H16.8537C16.1643 26.8923 15.6964 26.8355 15.45 26.7188C15.2004 26.6022 14.9228 26.3531 14.6202 25.9655L8.37223 17.0996C8.21941 16.7527 8.04783 16.5796 7.85755 16.5796C7.70472 16.5796 7.62673 16.7527 7.62673 17.0996V24.2849C7.62673 24.5938 7.53004 24.8462 7.33975 25.0385C7.14947 25.2308 6.91865 25.3286 6.65039 25.3286H1.03248C0.764244 25.3286 0.527149 25.2213 0.315046 25.0099C0.106051 24.7988 0 24.5561 0 24.2849V1.86223C0 1.55332 0.106051 1.29147 0.315046 1.08038C0.524041 0.868946 0.764244 0.761719 1.03248 0.761719H6.76579C6.8812 0.761719 7.02471 0.831298 7.19628 0.963736C7.36782 1.0992 7.49261 1.24408 7.56746 1.3987L16.2797 15.9396C16.3172 16.0183 16.4232 16.1319 16.5946 16.2862C16.7662 16.4408 16.9847 16.5194 17.2529 16.5194H17.309C17.5775 16.5194 17.7862 16.425 17.9392 16.2294C18.0922 16.0371 18.1888 15.9016 18.2263 15.8226L26.8823 1.4555C26.9978 1.26323 27.113 1.0992 27.2254 0.963736C27.3409 0.827937 27.4936 0.761719 27.6841 0.761719H27.7401H33.4733C33.7415 0.761719 33.9695 0.868946 34.1627 1.08038Z" fill="#2A4054"/>
<path d="M49.516 39.1064C46.2862 37.2409 43.7319 34.6997 41.8564 31.4869C39.9809 28.2738 39.0433 24.7622 39.0433 20.9524C39.0433 17.1426 39.9809 13.631 41.8564 10.4182C43.7319 7.20508 46.2862 4.66725 49.516 2.79833C52.7459 0.932777 56.276 0 60.1056 0C60.9962 0 61.8642 0.0564709 62.7167 0.172774C63.0642 0.210421 63.3358 0.364372 63.5283 0.63429C63.7208 0.904543 63.7809 1.21244 63.7019 1.55766L62.7738 6.57987C62.6569 7.19567 62.2716 7.50323 61.612 7.50323L60.1026 7.44676C57.6651 7.44676 55.4046 8.05315 53.3143 9.26526C51.224 10.4777 49.5728 12.1234 48.3542 14.1997C47.1353 16.2757 46.526 18.5278 46.526 20.9524C46.526 23.3773 47.1353 25.626 48.3542 27.7054C49.5728 29.7844 51.2274 31.4271 53.3143 32.6395C55.4012 33.8519 57.6651 34.458 60.1026 34.458C62.9251 34.458 65.4007 33.6604 67.5285 32.0617C69.6566 30.466 71.2227 28.3397 72.2269 25.6825H64.7408C64.4314 25.6825 64.1599 25.5662 63.9292 25.3369C63.6989 25.1077 63.582 24.8378 63.582 24.5299V20.3181C63.582 20.0102 63.6989 19.7399 63.9292 19.5107C64.1629 19.2814 64.4314 19.1651 64.7408 19.1651H77.0985C78.0269 19.1651 78.7436 19.3191 79.2455 19.627C79.7474 19.9349 80 20.3776 80 20.9554C80 24.8032 79.1475 28.3239 77.4456 31.5182C75.7441 34.7125 73.3728 37.2409 70.3385 39.1064C67.3012 40.972 63.8883 41.9048 60.0995 41.9048C56.2726 41.9048 52.7428 40.972 49.516 39.1064Z" fill="#2A4054"/>
</g>
<defs>
<clipPath id="clip0_2433_756">
<rect width="80" height="41.9048" fill="white"/>
</clipPath>
</defs>
</svg>
